<?xml version="1.0" encoding="UTF-8"?>
<svg width="200px" height="80px" viewBox="0 0 200 80" version="1.1" xmlns="http://www.w3.org/2000/svg" xmlns:xlink="http://www.w3.org/1999/xlink">
    <!-- Generator: Sketch 41.1 (35376) - http://www.bohemiancoding.com/sketch -->
    <title>logo</title>
    <desc>Created with Sketch.</desc>
    <defs>
        <path d="M186.8883,23.8779 C182.5043,14.8459 173.4383,10.1509 159.3803,10.1509 L145.8903,10.1509 C142.8773,10.1509 140.5163,12.2609 140.5163,14.9519 L140.5173,34.1889 L140.5183,46.7239 C140.5183,49.3709 142.9273,51.5239 145.8903,51.5239 C148.8523,51.5239 151.2623,49.3709 151.2623,46.7239 L151.2623,30.1689 L151.2623,20.9439 C151.2623,20.0269 152.0103,19.2829 152.9253,19.2829 L159.3803,19.2829 C166.9213,19.2829 172.0263,21.1009 175.1583,24.8779 C177.9333,28.2249 179.1603,33.1079 179.1603,39.6309 C179.1603,53.5549 173.6023,60.0389 159.3783,60.0389 C159.3783,60.0389 140.7813,59.9959 140.5763,59.9959 C135.9033,59.9959 132.1053,56.6029 131.8913,52.2499 C131.8613,52.1269 131.8473,51.9979 131.8473,51.8689 L131.8473,38.2929 L131.8473,31.2329 C131.8473,28.5829 129.4363,26.4289 126.4743,26.4289 C123.5133,26.4289 121.1043,28.5829 121.1043,31.2329 L121.1073,44.6219 L121.1083,52.5989 C121.0773,54.2469 121.3023,59.9129 125.4043,64.0849 C128.7163,67.4579 133.8243,69.1689 140.5813,69.1689 L159.3803,69.1689 C180.1113,69.1689 189.9993,58.9569 189.9993,39.6309 C189.9993,33.4239 188.9683,28.1639 186.8883,23.8779 Z M126.5084,10 C123.4654,10 120.9864,12.224 120.9864,14.954 L120.9864,16.131 C120.9864,18.86 123.4654,21.082 126.5084,21.082 C129.5544,21.082 132.0314,18.86 132.0314,16.131 L132.0314,14.954 C132.0314,12.224 129.5544,10 126.5084,10 Z M115.4049,61.539 L109.0189,53.768 L98.1199,40.506 C97.5709,39.825 97.4819,38.903 97.8359,38.135 C97.9109,37.971 97.9999,37.81 98.1169,37.664 L114.2909,17.974 C114.3009,17.958 114.3169,17.942 114.3289,17.927 C115.2779,16.805 115.3249,15.351 115.3249,15.073 C115.3249,12.324 112.9399,10.172 109.8959,10.172 C108.0799,10.172 106.6059,10.859 105.3939,12.274 L92.2859,28.342 C91.8559,28.884 91.1999,29.201 90.5089,29.201 C89.8159,29.201 89.1609,28.884 88.7309,28.341 L75.6869,12.322 C74.4879,10.931 73.0229,10.254 71.2099,10.254 C68.1649,10.254 65.7809,12.405 65.7809,15.153 C65.7809,15.434 65.8299,16.886 66.7599,17.981 C66.7719,17.998 66.7849,18.013 66.7979,18.029 L82.9059,37.664 C83.5639,38.482 83.5679,39.645 82.9269,40.471 C82.9189,40.481 82.9129,40.495 82.9039,40.506 L65.7209,61.412 L65.6209,61.543 C65.0569,62.318 64.7459,63.264 64.7459,64.238 C64.7459,66.986 67.1279,69.136 70.1739,69.136 C71.9279,69.136 73.5709,68.421 74.4589,67.271 L88.7309,49.686 C89.1609,49.143 89.8159,48.825 90.5089,48.825 C91.2029,48.825 91.8559,49.143 92.2879,49.686 L101.4459,60.961 L106.5729,67.273 C107.4979,68.471 109.1019,69.172 110.8839,69.172 C113.9289,69.172 116.3139,67.021 116.3139,64.274 C116.3139,63.3 116.0079,62.379 115.4049,61.539 Z M53.714,10.1513 C50.634,10.1513 48.061,12.3023 48.061,15.0503 L48.061,39.5013 L48.061,46.5013 L48.061,50.7113 C48.061,53.5943 46.237,59.4413 34.607,59.4623 C22.968,59.4413 21.097,53.5283 21.097,50.7113 L21.097,44.2613 L21.097,34.2613 L21.097,15.0503 C21.097,12.3023 18.572,10.1513 15.491,10.1513 C12.412,10.1513 10,12.3023 10,15.0503 L10,30.2113 L10,40.2113 L10,50.7113 C10,59.1243 15.16,69.1563 34.605,69.1693 C54.049,69.1563 59.211,59.1243 59.211,50.7113 L59.211,47.5193 L59.211,40.5193 L59.211,15.0503 C59.211,12.3023 56.796,10.1513 53.714,10.1513 Z" id="path-1"></path>
    </defs>
    <g id="Page-1" stroke="none" stroke-width="1" fill="none" fill-rule="evenodd">
        <g id="logo">
            <mask id="mask-2" fill="white">
                <use xlink:href="#path-1"></use>
            </mask>
            <use id="Mask" fill="#C01C72" xlink:href="#path-1"></use>
            <path d="M67.5,42 C84.2244617,42 100.328262,39.3426326 115.412202,34.4270965 C122.658019,32.0658386 115.751477,23.6629212 125.866104,23.6629212 C135.98073,23.6629212 132.63317,11.1738565 144.978288,6.12022629 C157.323406,1.06659612 164.635905,7.75598335 168.432226,4.47745887 C201.238108,-23.8538937 222,-65.752347 222,-112.5 C222,-197.827994 152.827994,-267 67.5,-267 C-17.8279938,-267 -87,-197.827994 -87,-112.5 C-87,-27.1720062 -17.8279938,42 67.5,42 Z" id="Oval" fill="#E0156A" mask="url(#mask-2)"></path>
            <circle id="Oval" fill="#92216C" mask="url(#mask-2)" cx="187" cy="142" r="117"></circle>
        </g>
    </g>
</svg>
